<svg width="3881" height="892" viewBox="0 0 3881 892" fill="none" xmlns="http://www.w3.org/2000/svg">
<path d="M0 410.5C177.822 197.833 266.733 197.833 266.733 410.5C266.733 623.167 355.644 623.167 533.467 410.5C711.289 197.833 800.2 197.833 800.2 410.5C800.2 623.167 889.111 623.167 1066.93 410.5C1244.76 197.833 1333.67 197.833 1333.67 410.5C1333.67 623.167 1422.58 623.167 1600.4 410.5C1778.22 197.833 1867.13 197.833 1867.13 410.5C1867.13 623.167 1956.04 623.167 2133.87 410.5C2311.69 197.833 2400.6 197.833 2400.6 410.5C2400.6 623.167 2489.51 623.167 2667.33 410.5C2845.16 197.833 2934.07 197.833 2934.07 410.5C2934.07 623.167 3022.98 623.167 3200.8 410.5C3378.62 197.833 3467.53 197.833 3467.53 410.5C3467.53 623.167 3556.44 623.167 3734.27 410.5C3912.09 197.833 4001 197.833 4001 410.5" stroke="#FFCE51" stroke-width="71"/>
<path d="M-23 460.5C154.822 247.833 243.733 247.833 243.733 460.5C243.733 673.167 332.644 673.167 510.467 460.5C688.289 247.833 777.2 247.833 777.2 460.5C777.2 673.167 866.111 673.167 1043.93 460.5C1221.76 247.833 1310.67 247.833 1310.67 460.5C1310.67 673.167 1399.58 673.167 1577.4 460.5C1755.22 247.833 1844.13 247.833 1844.13 460.5C1844.13 673.167 1933.04 673.167 2110.87 460.5C2288.69 247.833 2377.6 247.833 2377.6 460.5C2377.6 673.167 2466.51 673.167 2644.33 460.5C2822.16 247.833 2911.07 247.833 2911.07 460.5C2911.07 673.167 2999.98 673.167 3177.8 460.5C3355.62 247.833 3444.53 247.833 3444.53 460.5C3444.53 673.167 3533.44 673.167 3711.27 460.5C3889.09 247.833 3978 247.833 3978 460.5" stroke="#FF5050" stroke-width="71"/>
<path d="M-44 512.5C133.822 299.833 222.733 299.833 222.733 512.5C222.733 725.167 311.644 725.167 489.467 512.5C667.289 299.833 756.2 299.833 756.2 512.5C756.2 725.167 845.111 725.167 1022.93 512.5C1200.76 299.833 1289.67 299.833 1289.67 512.5C1289.67 725.167 1378.58 725.167 1556.4 512.5C1734.22 299.833 1823.13 299.833 1823.13 512.5C1823.13 725.167 1912.04 725.167 2089.87 512.5C2267.69 299.833 2356.6 299.833 2356.6 512.5C2356.6 725.167 2445.51 725.167 2623.33 512.5C2801.16 299.833 2890.07 299.833 2890.07 512.5C2890.07 725.167 2978.98 725.167 3156.8 512.5C3334.62 299.833 3423.53 299.833 3423.53 512.5C3423.53 725.167 3512.44 725.167 3690.27 512.5C3868.09 299.833 3957 299.833 3957 512.5" stroke="#FFCE51" stroke-width="68"/>
<path d="M-61 569.5C116.822 356.833 205.733 356.833 205.733 569.5C205.733 782.167 294.644 782.167 472.467 569.5C650.289 356.833 739.2 356.833 739.2 569.5C739.2 782.167 828.111 782.167 1005.93 569.5C1183.76 356.833 1272.67 356.833 1272.67 569.5C1272.67 782.167 1361.58 782.167 1539.4 569.5C1717.22 356.833 1806.13 356.833 1806.13 569.5C1806.13 782.167 1895.04 782.167 2072.87 569.5C2250.69 356.833 2339.6 356.833 2339.6 569.5C2339.6 782.167 2428.51 782.167 2606.33 569.5C2784.16 356.833 2873.07 356.833 2873.07 569.5C2873.07 782.167 2961.98 782.167 3139.8 569.5C3317.62 356.833 3406.53 356.833 3406.53 569.5C3406.53 782.167 3495.44 782.167 3673.27 569.5C3851.09 356.833 3940 356.833 3940 569.5" stroke="#FF5050" stroke-width="50"/>
</svg>
